<svg id="Layer_1" data-name="Layer 1" xmlns="http://www.w3.org/2000/svg" viewBox="0 0 467.65 140.22"><defs><style>.cls-1,.cls-6,.cls-8,.cls-9{fill:#414042;}.cls-1{stroke:#231f20;}.cls-1,.cls-2,.cls-3,.cls-4,.cls-5,.cls-6{stroke-miterlimit:10;}.cls-2{fill:#f1f2f2;}.cls-2,.cls-3,.cls-4,.cls-5{stroke:#00aeef;}.cls-3,.cls-5,.cls-7{fill:#00aeef;}.cls-4{fill:none;}.cls-5{stroke-width:0.75px;}.cls-6{stroke:#414042;}.cls-7{font-size:70.54px;font-family:CalistoMT, Calisto MT;}.cls-9{letter-spacing:0.01em;}</style></defs><path class="cls-1" d="M161.08,173.29V199h-6.84V172.79a15,15,0,0,0-15-15,14.79,14.79,0,0,0-14.79,14.79V199h-7V171.49a20.92,20.92,0,0,1,20.91-20.93,22.74,22.74,0,0,1,22.73,22.73Z" transform="translate(-102.39 -150.06)"/><path class="cls-2" d="M152.53,238.64a.86.86,0,0,1,0,.16,11.29,11.29,0,0,1-.87,2.25,12.08,12.08,0,0,1-10.76,6.59h-1.37a15.06,15.06,0,0,1-15.05-15V213.82a3.79,3.79,0,1,1,7.58,0v22.26a8.78,8.78,0,0,0,15.08-.78,3.54,3.54,0,0,1,1.66-.4A3.74,3.74,0,0,1,152.53,238.64Z" transform="translate(-102.39 -150.06)"/><path class="cls-3" d="M140.78,202.65h0Z" transform="translate(-102.39 -150.06)"/><path class="cls-4" d="M152.53,238.64a.86.86,0,0,1,0,.16,11.29,11.29,0,0,1-.87,2.25,12.08,12.08,0,0,1-10.76,6.59h-1.37a15.06,15.06,0,0,1-15.05-15V213.82a3.79,3.79,0,1,1,7.58,0v22.26a8.78,8.78,0,0,0,15.08-.78,3.54,3.54,0,0,1,1.66-.4A3.74,3.74,0,0,1,152.53,238.64Z" transform="translate(-102.39 -150.06)"/><path class="cls-5" d="M160.73,202.65H117.44v29.27a22.82,22.82,0,0,0,22.82,22.82,20.81,20.81,0,0,0,20.82-20.81V202.88Zm-8.21,36.15a11.29,11.29,0,0,1-.87,2.25,12.08,12.08,0,0,1-10.76,6.59h-1.37a15.06,15.06,0,0,1-15.05-15V213.82a3.79,3.79,0,1,1,7.58,0v22.26a8.78,8.78,0,0,0,15.08-.78,3.54,3.54,0,0,1,1.66-.4,3.74,3.74,0,0,1,3.74,3.74A.86.86,0,0,1,152.52,238.8Z" transform="translate(-102.39 -150.06)"/><path class="cls-4" d="M140.78,202.65h0Z" transform="translate(-102.39 -150.06)"/><path class="cls-4" d="M152.53,238.64a.86.86,0,0,1,0,.16,11.29,11.29,0,0,1-.87,2.25,12.08,12.08,0,0,1-10.76,6.59h-1.37a15.06,15.06,0,0,1-15.05-15V213.82a3.79,3.79,0,1,1,7.58,0v22.26a8.78,8.78,0,0,0,15.08-.78,3.54,3.54,0,0,1,1.66-.4A3.74,3.74,0,0,1,152.53,238.64Z" transform="translate(-102.39 -150.06)"/><path class="cls-6" d="M176.76,232.45a36.16,36.16,0,0,1-.28,4.45c-2.12,17-16.25,30.28-33.8,31.6V284h19.23a2.92,2.92,0,1,1,0,5.84H117.2a2.92,2.92,0,0,1,0-5.84h19.64V268.48c-17.26-1.35-31.18-14.3-33.58-30.9a34.81,34.81,0,0,1-.37-5.13c0-.71,0-1.42.06-2.12h0a2.9,2.9,0,0,1,5.55.16c-.07.8-.1,1.62-.1,2.44a28.58,28.58,0,0,0,.24,3.72c1.91,15,15.11,26.55,31.13,26.55s29.44-11.78,31.17-26.92a28.56,28.56,0,0,0,.19-3.35,24.89,24.89,0,0,0-.13-2.74,3.4,3.4,0,0,1,2.87-2.26,3.31,3.31,0,0,1,2.8,2.13h0C176.73,230.85,176.76,231.65,176.76,232.45Z" transform="translate(-102.39 -150.06)"/><text class="cls-7" transform="translate(99.22 94.48)">P<tspan class="cls-8" x="43.4" y="0">ha</tspan><tspan class="cls-9" x="116.9" y="0">r</tspan><tspan class="cls-8" x="142.87" y="0">ma</tspan><tspan x="237" y="0">H</tspan><tspan class="cls-8" x="293.55" y="0">ub</tspan></text></svg>